# xmcd
#
# Track frame offsets:
#       150
#       19841
#       35936
#       46256
#       64355
#       85050
#       98351
#       117130
#       135281
#       155618
#       177580
#       193297
#       218254
#       233910
#       262015
#       281220
#       292480
#       310542
#
# Disc length: 4369 seconds
#
# Revision: 0
# Processed by: cddbd v1.4PL0 Copyright (c) Steve Scherf et al.
# Submitted via: CD-DA_X-Tractor v0.21
#
DISCID=0a110f12
DTITLE=Zorbas - Taverna
DYEAR=1900
DGENRE=
TTITLE0=Siiras Syrtaki
TTITLE1=Karjaplika Syroselt
TTITLE2=Kostilata
TTITLE3=Poiss läeb karja
TTITLE4=Syrtaki kuningas Ottole
TTITLE5=Fissolini
TTITLE6=Sireenid Sind viisid
TTITLE7=Syrtaki
TTITLE8=Pende Manges
TTITLE9=Voodi kahele
TTITLE10=Kadrike mo
TTITLE11=Hea Vasilio
TTITLE12=Kuumad päevad Samosel 
TTITLE13=Inglite linn
TTITLE14=Metaxa
TTITLE15=Enas Aetos
TTITLE16=Popurrii
TTITLE17=Vaikelli
EXTD=
EXTT0=
EXTT1=
EXTT2=
EXTT3=
EXTT4=
EXTT5=
EXTT6=
EXTT7=
EXTT8=
EXTT9=
EXTT10=
EXTT11=
EXTT12=
EXTT13=
EXTT14=
EXTT15=
EXTT16=
EXTT17=
PLAYORDER=
